<?xml version="1.0" encoding="utf-8"?>
<!-- Generator: Adobe Illustrator 23.0.3, SVG Export Plug-In . SVG Version: 6.00 Build 0)  -->
<svg version="1.1" id="Layer_1" xmlns="http://www.w3.org/2000/svg" xmlns:xlink="http://www.w3.org/1999/xlink" x="0px" y="0px"
	 viewBox="0 0 512 512" style="enable-background:new 0 0 512 512;" xml:space="preserve">
<style type="text/css">
	.st0{fill:#F6A316;}
	.st1{fill:#083344;}
	.st2{fill:#ECEEF1;}
	.st3{fill:none;stroke:#083344;stroke-width:15;stroke-linecap:round;stroke-linejoin:round;stroke-miterlimit:10;}
	.st4{fill:none;stroke:#F6A316;stroke-width:15;stroke-linecap:round;stroke-linejoin:round;stroke-miterlimit:10;}
</style>
<line class="st3" x1="92.46" y1="70.79" x2="234.77" y2="70.79"/>
<line class="st3" x1="70.3" y1="235.27" x2="70.3" y2="91.26"/>
<line class="st3" x1="70.3" y1="420.74" x2="70.3" y2="277.26"/>
<line class="st3" x1="234.77" y1="441.73" x2="92.46" y2="441.73"/>
<line class="st3" x1="420.01" y1="441.73" x2="276.76" y2="441.73"/>
<line class="st3" x1="441.24" y1="277.26" x2="441.24" y2="420.74"/>
<line class="st3" x1="441.24" y1="91.26" x2="441.24" y2="235.27"/>
<line class="st3" x1="276.76" y1="70.79" x2="420.01" y2="70.79"/>
<g>
	<g>
		<rect x="50.47" y="49.27" class="st0" width="41.99" height="41.99"/>
		<rect x="420.01" y="49.27" class="st0" width="41.99" height="41.99"/>
		<rect x="234.77" y="49.27" class="st0" width="41.99" height="41.99"/>
	</g>
	<rect x="50.47" y="420.74" class="st0" width="41.99" height="41.99"/>
	<rect x="420.01" y="420.74" class="st0" width="41.99" height="41.99"/>
	<g>
		<rect x="50" y="235.27" class="st0" width="41.99" height="41.99"/>
		<rect x="419.54" y="235.27" class="st0" width="41.99" height="41.99"/>
	</g>
	<rect x="234.77" y="420.74" class="st0" width="41.99" height="41.99"/>
</g>
<line class="st4" x1="254.72" y1="190.12" x2="254.72" y2="324.5"/>
<line class="st4" x1="321.91" y1="257.31" x2="187.53" y2="257.31"/>
</svg>
